<svg width="25" height="25" viewBox="0 0 25 25" fill="none" xmlns="http://www.w3.org/2000/svg">
<path fill-rule="evenodd" clip-rule="evenodd" d="M24.7891 23.2109C24.9297 23.3516 25 23.5273 25 23.7383C25 23.9492 24.9297 24.125 24.7891 24.2656C24.6328 24.4219 24.4531 24.5 24.25 24.5C24.0469 24.5 23.8672 24.4219 23.7109 24.2656L16.4453 16.9531C15.6172 17.6719 14.6797 18.2344 13.6328 18.6406C12.5859 19.0469 11.4766 19.25 10.3047 19.25C9.00781 19.25 7.78907 19.0039 6.64844 18.5117C5.50781 18.0195 4.51172 17.3516 3.66016 16.5078C2.80859 15.6641 2.14063 14.6719 1.65625 13.5312C1.17187 12.3906 0.929688 11.1719 0.929688 9.875C0.929688 8.57812 1.17187 7.35938 1.65625 6.21875C2.14063 5.07812 2.80859 4.08594 3.66016 3.24219C4.51172 2.39843 5.50781 1.73047 6.64844 1.23828C7.78907 0.746091 9.00781 0.5 10.3047 0.5C11.5859 0.5 12.7969 0.746091 13.9375 1.23828C15.0781 1.73047 16.0742 2.39843 16.9258 3.24219C17.7773 4.08594 18.4492 5.07812 18.9414 6.21875C19.4336 7.35938 19.6797 8.57812 19.6797 9.875C19.6797 11.0156 19.4844 12.0977 19.0938 13.1211C18.7031 14.1445 18.1719 15.0625 17.5 15.875L24.7891 23.2109ZM10.3047 17.7734C11.3828 17.7734 12.4023 17.5664 13.3633 17.1523C14.3242 16.7383 15.1602 16.1719 15.8711 15.4531C16.582 14.7344 17.1445 13.8984 17.5586 12.9453C17.9727 11.9922 18.1797 10.9688 18.1797 9.875C18.1797 8.78124 17.9727 7.75782 17.5586 6.80469C17.1445 5.85156 16.582 5.01563 15.8711 4.29688C15.1602 3.57812 14.3242 3.01172 13.3633 2.59766C12.4023 2.18359 11.3828 1.97656 10.3047 1.97656C9.21093 1.97656 8.1836 2.18359 7.22266 2.59766C6.26171 3.01172 5.42578 3.57812 4.71484 4.29688C4.0039 5.01563 3.44141 5.85156 3.02734 6.80469C2.61328 7.75782 2.40625 8.78124 2.40625 9.875C2.40625 10.9688 2.61328 11.9922 3.02734 12.9453C3.44141 13.8984 4.0039 14.7344 4.71484 15.4531C5.42578 16.1719 6.26171 16.7383 7.22266 17.1523C8.1836 17.5664 9.21093 17.7734 10.3047 17.7734Z" fill="#767676"/>
</svg>
