<svg width="10" height="10" viewBox="0 0 10 10" fill="none" xmlns="http://www.w3.org/2000/svg">
<path d="M7.79554 10C7.65028 10 7.49789 9.93997 7.33124 9.8153L5.38647 8.3817C5.19233 8.23926 4.80779 8.23891 4.61501 8.38134L2.6682 9.81601C2.3237 10.0707 1.99448 10.0462 1.8241 9.80428C1.70939 9.6416 1.69343 9.41747 1.77659 9.13828L2.47915 6.75914C2.55212 6.51227 2.4374 6.14606 2.23987 5.99119L0.334808 4.49721C-0.0385348 4.20417 -0.0212253 3.92569 0.0225576 3.78468C0.0663405 3.64437 0.209229 3.40781 0.675228 3.4007L3.05579 3.36483C3.30322 3.36057 3.60087 3.1343 3.68199 2.88886L4.44904 0.531737C4.60007 0.0689091 4.8587 0 4.99989 0C5.1404 0 5.39971 0.0689092 5.55006 0.531382L6.31982 2.88886C6.39924 3.13395 6.6969 3.36057 6.94432 3.36483L9.32353 3.4007C9.79021 3.40816 9.93344 3.64402 9.97722 3.78397C10.021 3.92392 10.0393 4.20239 9.66701 4.4965L7.75923 5.99119C7.56238 6.14641 7.44834 6.51227 7.52165 6.75878L8.22319 9.13935C8.30601 9.41853 8.28937 9.64267 8.17466 9.80499C8.08573 9.9286 7.94794 10 7.79554 10Z" fill="#00A799"/>
</svg>
